<?xml version="1.0" encoding="iso-8859-1"?>
<!-- Generator: Adobe Illustrator 19.0.0, SVG Export Plug-In . SVG Version: 6.00 Build 0)  -->
<svg version="1.1" id="Layer_1" xmlns="http://www.w3.org/2000/svg" xmlns:xlink="http://www.w3.org/1999/xlink" x="0px" y="0px"
	 viewBox="0 0 512 512" style="enable-background:new 0 0 512 512;" xml:space="preserve">
<path style="fill:#3AC099;" d="M238.592,398.362l11.212-10.904c4.791-4.659,9.329-9.021,13.581-13.108
	c37.354-35.881,56.103-53.89,56.103-91.342v-61.126l-80.896,80.896V398.362z"/>
<path style="fill:#51A978;" d="M319.488,110.382l-28.251,28.269c-0.44,0.437-0.928,0.503-1.18,0.503
	c-0.196,0-0.532-0.039-0.872-0.248l-2.169-3.285l-21.253,19.982l3.506,2.819c0.341,0.382,0.415,0.803,0.415,1.097
	c0,0.313-0.085,0.77-0.484,1.17l-30.607,30.607v106.818l80.896-80.909L319.488,110.382L319.488,110.382z"/>
<path style="fill:#51E9D3;" d="M192.512,54.338v322.373c0,20.193,10.187,29.973,30.458,49.434l12.319,11.963V9.179l-8.051,1.805
	C207.117,15.493,192.512,33.726,192.512,54.338z"/>
<path style="fill:#E0F4B4;" d="M245.912,10.411l-7.32-0.795v177l28.267-28.267c0.4-0.4,0.854-0.483,1.167-0.483
	c0.285,0,0.705,0.072,1.082,0.413l19.754-19.641c-0.625-0.639-0.618-1.675,0.019-2.311l30.607-30.607V92.457
	C319.488,50.24,287.857,14.967,245.912,10.411z"/>
<path d="M273.54,153.38c0.11,0.088,0.22,0.187,0.33,0.297c3.226,3.226,3.226,8.456,0,11.682l-28.672,28.672v88.13l67.683-67.694
	v-88.13l-16.99,17.001c-1.619,1.608-3.733,2.422-5.836,2.422c-2.114,0-4.228-0.815-5.847-2.422
	c-0.022-0.022-0.044-0.044-0.066-0.077c-3.16-3.226-3.138-8.401,0.066-11.605l28.672-28.672V92.457
	c0-39.077-29.674-71.35-67.683-75.479v153.688l16.99-16.99C265.304,150.561,270.303,150.451,273.54,153.38z M329.398,217.892v65.118
	c0,41.676-21.009,61.858-59.161,98.502c-7.498,7.201-15.922,15.305-25.038,24.367v16.296c22.858-22.792,46.212-45.926,46.487-46.212
	c3.237-3.204,8.467-3.182,11.682,0.055c3.215,3.248,3.182,8.467-0.055,11.682c-0.33,0.33-32.361,32.063-58.115,57.806v16.307
	c22.858-22.792,46.212-45.926,46.487-46.212c3.237-3.204,8.467-3.182,11.682,0.055c3.215,3.248,3.182,8.467-0.055,11.682
	c-0.33,0.33-32.361,32.063-58.115,57.806v18.597c0,4.558-3.7,8.258-8.258,8.258s-8.258-3.7-8.258-8.258V481.72v-36.192
	c-4.536-4.503-8.776-8.577-12.552-12.211c-20.909-20.084-33.528-32.206-33.528-56.606V54.338C182.602,24.378,206.98,0,236.94,0
	c50.98,0,92.457,41.478,92.457,92.457v13.951V217.892z M312.882,283.009v-45.177l-67.683,67.683v77.207
	c4.801-4.669,9.348-9.04,13.598-13.125C295.936,333.923,312.882,317.649,312.882,283.009z M228.682,422.483v-20.04V302.091V190.607
	V17.43c-16.902,3.788-29.564,18.894-29.564,36.908v322.373c0,17.364,8.324,25.369,28.452,44.693
	C227.934,421.756,228.308,422.119,228.682,422.483z"/>
<g>
</g>
<g>
</g>
<g>
</g>
<g>
</g>
<g>
</g>
<g>
</g>
<g>
</g>
<g>
</g>
<g>
</g>
<g>
</g>
<g>
</g>
<g>
</g>
<g>
</g>
<g>
</g>
<g>
</g>
</svg>
